<mxfile host="app.diagrams.net" modified="2023-10-12T07:19:41.190Z" agent="Mozilla/5.0 (Macintosh; Intel Mac OS X 10_15_7) AppleWebKit/537.36 (KHTML, like Gecko) Chrome/117.0.0.0 Safari/537.36" version="22.0.4" etag="tyvyvsjmKjYua232adWd" type="github">
  <diagram name="第 1 页" id="uxam0HJFk7IKHuleWVk5">
    <mxGraphModel>
      <root>
        <mxCell id="0" />
        <mxCell id="1" parent="0" />
      </root>
    </mxGraphModel>
  </diagram>
</mxfile>
